<?xml version="1.0" encoding="UTF-8"?>
<svg id="Livello_2" data-name="Livello 2" xmlns="http://www.w3.org/2000/svg" viewBox="0 0 171.8 281.51">
  <g id="Livello_1-2" data-name="Livello 1">
    <g>
      <path d="M83.8,218.61c-8.2,0-11.23-3.68-12.8-6.45-7.45-13.13.23-42.95,8.57-56.91,4.62-7.72,14.82-17.7,24.68-27.34,17.3-16.92,33.64-32.9,34.71-47.94.79-11.09-2.86-21.33-10.58-29.62-10.04-10.78-26.12-17.22-43.03-17.22-21.53,0-39.65,10.37-48.46,27.75-1.52,3-2.52,6.1-3.49,9.1-1.37,4.23-2.66,8.23-5.08,10.54-4.13,3.93-8.53,4.75-11.5,4.75-4.88,0-9.71-2.19-12.93-5.87-2.17-2.48-4.58-6.73-3.74-12.95C3.82,39.18,29.89,10.95,58.29,3.51c8.9-2.33,17.9-3.51,26.77-3.51,35.81,0,68.44,19.89,81.2,49.49,11.74,27.24,4.6,57.55-19.59,83.15-2.97,3.15-7.29,6.99-11.86,11.07-14.25,12.69-30.4,27.08-32.89,42.06-.55,3.33-.82,6.82-1.08,10.18-1.18,15.53-2.72,21.5-14.27,22.53-.96.08-1.89.13-2.77.13Z"/>
      <path d="M84.29,239.12c28.31-.02,28.6,42.39,0,42.39-28.37,0-27.83-42.37,0-42.39Z"/>
    </g>
  </g>
</svg>