<?xml version="1.0" encoding="UTF-8"?>
<svg id="Livello_2" data-name="Livello 2" xmlns="http://www.w3.org/2000/svg" viewBox="0 0 304.55 55.49">
  <g id="Livello_1-2" data-name="Livello 1">
    <g id="Avatar_Black" data-name="Avatar Black">
      <g>
        <g>
          <path d="M.96,1.04h-.96v2.37h.96c1.47,0,1.82,0,1.82,1.98v44.81c0,1.98-.46,1.98-1.82,1.98h-.96v2.29h9.88v-2.29h-.96c-1.36,0-1.82,0-1.82-1.98V5.38c0-1.98.35-1.98,1.82-1.98h.96V1.04H.96Z"/>
          <path d="M50.95,41.8h-.96v.96c0,8.26-.53,8.75-4.72,8.75h-9.43V5.38c0-1.98.35-1.98,1.82-1.98h.96V1.04h-9.88v2.37h.96c1.47,0,1.82,0,1.82,1.98v44.81c0,1.98-.46,1.98-1.82,1.98h-.96v2.29h23.45v-12.67h-1.25Z"/>
          <path d="M83.32,47.68h-.96v.96c0,2.4-1.07,3.89-2.79,3.89-1.62,0-2.44-3.22-2.44-9.56V1.04h-7.09v2.29h.96c1.36,0,1.82,0,1.82,1.98v28.69c0,12.04-4.36,18.53-8.47,18.53-4.85,0-5.23-6.98-5.23-9.12V1.04h-7.09v2.29h.96c1.36,0,1.82,0,1.82,1.98v37.08c0,7.59,4.01,13.1,9.54,13.1,3.7,0,6.82-2.22,9.14-6.48,1.19,5.26,3.75,6.48,5.86,6.48,3.9,0,5.68-3.55,5.68-6.85v-.96h-1.7Z"/>
          <path d="M115.7,1.04h-.66l-.24.61-11.59,29.7L93.1,1.69l-.22-.65h-7.39v2.29h.96c1.36,0,1.82,0,1.82,1.98v44.88c0,1.98-.46,1.98-1.82,1.98h-.96v2.29h8.29v-2.29h-.96c-1.36,0-1.82,0-1.82-1.98V9.22s.02.05.03.08c1.71,4.99,4.55,13.32,9.4,27.63l-3.17,8.28c-1.05,2.55-.78,5.84.66,7.98.99,1.48,2.49,2.3,4.22,2.3,1.88,0,3.46-.82,4.58-2.38,1.55-2.16,1.98-5.58,1.05-8.31l-3.18-9.38,10.62-27.14v41.91c0,1.98-.39,1.98-1.82,1.98h-.96v2.29h9.88v-2.29h-.96c-1.36,0-1.82,0-1.82-1.98V5.31c0-1.98.46-1.98,1.82-1.98h.96V1.04h-6.59ZM103.72,51.35c-.58.9-1.45,1.17-1.61,1.19-.73,0-1.3-.31-1.73-.93-1.05-1.51-.98-4.35-.47-5.71l1.92-4.87c.59,1.77,1.24,3.68,1.95,5.67.67,1.96.65,3.57-.05,4.66Z"/>
          <path d="M130.01,7.75c.27,0,.54-.04.8-.12,1.66-.51,2.68-2.54,2.31-4.62-.33-1.78-1.6-3.01-3.1-3.01h0c-.27,0-.54.04-.8.12-1.72.51-2.74,2.49-2.37,4.62.32,1.75,1.65,3.01,3.16,3.01Z"/>
          <path d="M132.17,50.19V13.62c0-2.27-1.47-4.05-3.35-4.05h-3.75v2.29h.96c1.47,0,1.82,0,1.82,1.98v36.35c0,1.98-.46,1.98-1.82,1.98h-.96v2.29h9.88v-2.29h-.96c-1.36,0-1.82,0-1.82-1.98Z"/>
          <path d="M167.39,1.04h-7.32v2.29h.96c1.36,0,1.82,0,1.82,1.98v36.94L144.53,1.6l-.26-.57h-6.53v2.29h.96c1.36,0,1.82,0,1.82,1.98v44.88c0,1.98-.46,1.98-1.82,1.98h-.96v2.29h8.29v-2.29h-.96c-1.36,0-1.82,0-1.82-1.98V9.5l20.47,45.41h1.85V5.31c0-1.98.39-1.98,1.82-1.98h.96V1.04h-.96Z"/>
          <path d="M205.62,47.68h-.96v.96c0,2.87-1.41,3.89-2.73,3.89-1.66,0-2.5-3.22-2.5-9.56V15.68C199.42,8.45,195.91,0,186.02,0c-4.81,0-11.28,2.6-13.69,9.93l-.28.85.83.34,2.5,1.03,1.01.42.29-1.05c1.72-6.32,6.2-8.56,9.52-8.56,7.86,0,8.92,7.06,8.92,13.97v2.95c-9.7.18-24.82,3.27-24.82,20.67,0,8.8,5.07,14.94,12.32,14.94,5.54,0,9.81-3.14,12.72-9.34.66,6.2,2.79,9.34,6.37,9.34,4.12,0,5.62-4.1,5.62-6.85v-.96h-1.7ZM182.61,52.54c-5.09,0-8.01-4.37-8.01-11.99,0-15.83,14.62-17.89,20.51-18.08v4.61c0,5.97-.9,25.45-12.5,25.45Z"/>
          <path d="M234.87,49.28l-12.8-19.41c.2.01.4.02.59.02,5.99,0,12.04-4.92,12.04-15.9,0-8.23-4.91-12.96-13.46-12.96h-12.55v2.29h.96c1.36,0,1.82,0,1.82,1.98v44.88c0,1.98-.46,1.98-1.82,1.98h-.96v2.29h9.88v-2.29h-.96c-1.36,0-1.82,0-1.82-1.98v-21.49l14.76,22.24c1.47,2.24,3.67,3.52,6.03,3.52h2.78v-2.29h-.96c-1.25,0-1.72-.27-3.52-2.89ZM221.58,26.49c-1.74,0-3.55-.61-5.37-1.83l-.42-.28V5.31c0-.84,2.07-1.32,5.68-1.32,3.17,0,8.52,2.14,8.52,10.15,0,7.16-3.54,12.35-8.41,12.35Z"/>
          <path d="M246.22,7.75c.27,0,.54-.04.8-.12,1.66-.51,2.68-2.54,2.31-4.62-.33-1.78-1.6-3.01-3.1-3.01h0c-.27,0-.54.04-.8.12-1.72.51-2.74,2.49-2.37,4.62.32,1.75,1.65,3.01,3.16,3.01Z"/>
          <path d="M250.21,52.17c-1.36,0-1.82,0-1.82-1.98V13.62c0-2.27-1.47-4.05-3.35-4.05h-3.75v2.29h.96c1.47,0,1.82,0,1.82,1.98v36.35c0,1.98-.46,1.98-1.82,1.98h-.96v2.29h9.88v-2.29h-.96Z"/>
        </g>
        <g>
          <path d="M272.67,15.88c2.22-1.52,3.69-4.12,3.69-7.08,0-4.97-4.03-8.31-10.04-8.31-4.38,0-7.91,1.94-9.2,5.06-1.13,2.73-.32,5.84,2.16,8.32l.57.57,2.39-.9-.62-1.24c-1.17-2.32-1.26-4.51-.24-6.15.99-1.6,2.94-2.56,5.21-2.56,3.64,0,5.48,1.73,5.48,5.14,0,5.49-5.51,5.91-7.2,5.91h-1.24v3.13h1.24c4.09,0,8.45.51,8.45,6.6,0,4.77-3.38,6.9-6.73,6.9-2.27,0-4.22-.96-5.21-2.56-1.01-1.64-.93-3.83.24-6.15l.62-1.24-2.39-.9-.57.57c-2.48,2.48-3.29,5.59-2.16,8.32,1.29,3.12,4.82,5.06,9.2,5.06,4.69,0,11.29-3.1,11.29-9.99,0-4.67-2.36-7.22-4.94-8.48Z"/>
          <path d="M287.53,1.09h-10.04v2.75h1.24c.48,0,.72.02.83.05.02.07.04.2.04.43v26.25c0,.23-.02.36-.04.42-.1.03-.32.06-.83.06h-1.24v2.7h10.04c12.55,0,17.02-8.41,17.02-16.29s-4.47-16.37-17.02-16.37ZM287.71,30.66c-2.55,0-3.47-.21-3.8-.35V4.56c.31-.13,1.22-.38,3.8-.38,5.65,0,12.25,3.48,12.25,13.28s-6.33,13.2-12.25,13.2Z"/>
        </g>
        <g>
          <path d="M264.3,41.89h-1.52v-1.52c0-.69-.56-1.25-1.25-1.25s-1.25.56-1.25,1.25v1.52h-1.52c-.69,0-1.25.56-1.25,1.25s.56,1.25,1.25,1.25h1.52v1.52c0,.69.56,1.25,1.25,1.25s1.25-.56,1.25-1.25v-1.52h1.52c.69,0,1.25-.56,1.25-1.25s-.56-1.25-1.25-1.25Z"/>
          <path d="M290.3,41.89h-1.52v-1.52c0-.69-.56-1.25-1.25-1.25s-1.25.56-1.25,1.25v1.52h-1.52c-.69,0-1.25.56-1.25,1.25s.56,1.25,1.25,1.25h1.52v1.52c0,.69.56,1.25,1.25,1.25s1.25-.56,1.25-1.25v-1.52h1.52c.69,0,1.25-.56,1.25-1.25s-.56-1.25-1.25-1.25Z"/>
          <path d="M277.3,50.17h-1.52v-1.52c0-.69-.56-1.25-1.25-1.25s-1.25.56-1.25,1.25v1.52h-1.52c-.69,0-1.25.56-1.25,1.25s.56,1.25,1.25,1.25h1.52v1.52c0,.69.56,1.25,1.25,1.25s1.25-.56,1.25-1.25v-1.52h1.52c.69,0,1.25-.56,1.25-1.25s-.56-1.25-1.25-1.25Z"/>
          <path d="M303.3,50.17h-1.52v-1.52c0-.69-.56-1.25-1.25-1.25s-1.25.56-1.25,1.25v1.52h-1.52c-.69,0-1.25.56-1.25,1.25s.56,1.25,1.25,1.25h1.52v1.52c0,.69.56,1.25,1.25,1.25s1.25-.56,1.25-1.25v-1.52h1.52c.69,0,1.25-.56,1.25-1.25s-.56-1.25-1.25-1.25Z"/>
        </g>
      </g>
    </g>
  </g>
</svg>