<?xml version="1.0" encoding="UTF-8"?>
<svg id="Livello_2" data-name="Livello 2" xmlns="http://www.w3.org/2000/svg" viewBox="0 0 1169.07 1169.07">
  <defs>
    <style>
      .cls-1 {
        fill: #b58e48;
      }

      .cls-2 {
        fill: #3a4a42;
      }
    </style>
  </defs>
  <g id="Livello_2-2" data-name="Livello 2">
    <g id="seatzen-logo">
      <path class="cls-2" d="M1123.12,357c-29.44-69.61-71.59-132.12-125.26-185.79-53.67-53.67-116.18-95.82-185.79-125.26C739.99,15.46,663.43,0,584.54,0h-2.77c-6.76,0-12.23,5.48-12.23,12.23v38.1c0,6.76,5.48,12.23,12.23,12.23h0c288.46,0,524.36,232.82,524.74,521.27.38,288.37-234.3,523.06-522.68,522.68-288.46-.38-521.27-236.29-521.27-524.74h0c0-6.76-5.48-12.23-12.23-12.23H15c-8.28,0-15,6.72-15,15h0c0,78.9,15.46,155.45,45.95,227.54,29.44,69.61,71.58,132.12,125.26,185.79,53.67,53.67,116.18,95.82,185.79,125.26,72.09,30.49,148.64,45.95,227.54,45.95s155.45-15.46,227.54-45.95c69.61-29.44,132.12-71.59,185.79-125.26,53.67-53.67,95.82-116.18,125.26-185.79,30.49-72.09,45.95-148.64,45.95-227.54s-15.46-155.45-45.95-227.54Z"/>
      <circle class="cls-1" cx="584.54" cy="584.54" r="328.66"/>
      <g>
        <path class="cls-1" d="M584.64,235.81c22.48,0,44.63,2.14,66.32,6.34,3.4.66,6.69-1.54,7.41-4.93.97-4.57,1.95-9.14,2.92-13.71.74-3.49-1.52-6.91-5.03-7.59-23.18-4.5-47.12-6.86-71.62-6.87s-48.42,2.34-71.6,6.82c-3.51.68-5.78,4.1-5.03,7.59.97,4.57,1.95,9.14,2.92,13.71.72,3.38,4.01,5.59,7.41,4.93,21.69-4.18,43.83-6.3,66.29-6.3Z"/>
        <path class="cls-1" d="M831.2,338.01c15.89,15.9,30.04,33.07,42.41,51.38,1.94,2.87,5.82,3.64,8.73,1.76,3.92-2.54,7.84-5.09,11.76-7.63,2.99-1.94,3.81-5.97,1.81-8.92-13.21-19.57-28.47-38.17-45.79-55.5-17.31-17.32-35.89-32.58-55.45-45.8-2.96-2-6.98-1.19-8.93,1.81-2.54,3.92-5.09,7.84-7.63,11.76-1.88,2.9-1.11,6.79,1.75,8.73,18.29,12.38,35.45,26.53,51.33,42.42Z"/>
        <path class="cls-1" d="M933.28,584.62c0,22.48-2.14,44.63-6.34,66.32-.66,3.4,1.54,6.69,4.93,7.41,4.57.97,9.14,1.95,13.71,2.92,3.49.74,6.91-1.52,7.59-5.03,4.5-23.18,6.86-47.12,6.87-71.62,0-24.49-2.34-48.42-6.82-71.6-.68-3.51-4.1-5.78-7.59-5.03-4.57.97-9.14,1.95-13.71,2.92-3.38.72-5.59,4.01-4.93,7.41,4.18,21.69,6.3,43.83,6.3,66.29Z"/>
        <path class="cls-1" d="M831.08,831.19c-15.9,15.89-33.07,30.04-51.38,42.41-2.87,1.94-3.64,5.82-1.76,8.73,2.54,3.92,5.09,7.84,7.63,11.76,1.94,2.99,5.97,3.81,8.92,1.81,19.57-13.21,38.17-28.47,55.5-45.79s32.58-35.89,45.8-55.45c2-2.96,1.19-6.98-1.81-8.93-3.92-2.54-7.84-5.09-11.76-7.63-2.9-1.88-6.79-1.11-8.73,1.75-12.38,18.29-26.53,35.45-42.42,51.33Z"/>
        <path class="cls-1" d="M584.46,933.27c-22.48,0-44.63-2.14-66.32-6.34-3.4-.66-6.69,1.54-7.41,4.93-.97,4.57-1.95,9.14-2.92,13.71-.74,3.49,1.52,6.91,5.03,7.59,23.18,4.5,47.12,6.86,71.62,6.87,24.49,0,48.42-2.34,71.6-6.82,3.51-.68,5.78-4.1,5.03-7.59-.97-4.57-1.95-9.14-2.92-13.71-.72-3.38-4.01-5.59-7.41-4.93-21.69,4.18-43.83,6.3-66.29,6.3Z"/>
        <path class="cls-1" d="M337.9,831.06c-15.89-15.9-30.04-33.07-42.41-51.38-1.94-2.87-5.82-3.64-8.73-1.76-3.92,2.54-7.84,5.09-11.76,7.63-2.99,1.94-3.81,5.97-1.81,8.92,13.21,19.57,28.47,38.17,45.79,55.5s35.89,32.58,55.45,45.8c2.96,2,6.98,1.19,8.93-1.81,2.54-3.92,5.09-7.84,7.63-11.76,1.88-2.9,1.11-6.79-1.75-8.73-18.29-12.38-35.45-26.53-51.33-42.42Z"/>
        <path class="cls-1" d="M235.82,584.45c0-22.48,2.14-44.63,6.34-66.32.66-3.4-1.54-6.69-4.93-7.41-4.57-.97-9.14-1.95-13.71-2.92-3.49-.74-6.91,1.52-7.59,5.03-4.5,23.18-6.86,47.12-6.87,71.62,0,24.49,2.34,48.42,6.82,71.6.68,3.51,4.1,5.78,7.59,5.03,4.57-.97,9.14-1.95,13.71-2.92,3.38-.72,5.59-4.01,4.93-7.41-4.18-21.69-6.3-43.83-6.3-66.29Z"/>
        <path class="cls-1" d="M338.02,337.89c15.9-15.89,33.07-30.04,51.38-42.41,2.87-1.94,3.64-5.82,1.76-8.73-2.54-3.92-5.09-7.84-7.63-11.76-1.94-2.99-5.97-3.81-8.92-1.81-19.57,13.21-38.17,28.47-55.5,45.79-17.32,17.31-32.58,35.89-45.8,55.45-2,2.96-1.19,6.98,1.81,8.93,3.92,2.54,7.84,5.09,11.76,7.63,2.9,1.88,6.79,1.11,8.73-1.75,12.38-18.29,26.53-35.45,42.42-51.33Z"/>
      </g>
    </g>
  </g>
</svg>